<svg xmlns="http://www.w3.org/2000/svg" class="dg" viewBox="0 0 340 212" width="340" role="img"><style>.gr{stroke:var(--grid,#c9d1d8);stroke-width:.7;stroke-dasharray:2 2}.ax{stroke:var(--fg,#1d2329);stroke-width:1.2}.ahd{fill:var(--fg,#1d2329)}.c1{fill:none;stroke:var(--accent,#1f6f78);stroke-width:2;stroke-linejoin:round}.c2{fill:none;stroke:var(--accent2,#b5562a);stroke-width:2;stroke-dasharray:6 4}.as{stroke:var(--muted,#5f6b76);stroke-width:1;stroke-dasharray:4 4}.sh{fill:var(--accent-soft,#e3f0f1);stroke:none}.dt{fill:var(--accent,#1f6f78)}.dto{fill:var(--paper,#fff);stroke:var(--accent2,#b5562a);stroke-width:1.5}.lb{fill:var(--fg,#1d2329);font:13px system-ui,sans-serif}.it{font-style:italic;font-family:Georgia,serif}.tk{fill:var(--muted,#5f6b76);font:11px ui-monospace,monospace}</style><defs><marker id="ah" viewBox="0 0 8 8" refX="7" refY="4" markerWidth="7" markerHeight="7" orient="auto"><path d="M0,0L8,4L0,8z" class="ahd"/></marker></defs><line class="gr" x1="26.0" y1="182.2" x2="26.0" y2="18.0"/><line class="gr" x1="71.6" y1="182.2" x2="71.6" y2="18.0"/><line class="gr" x1="117.2" y1="182.2" x2="117.2" y2="18.0"/><line class="gr" x1="162.9" y1="182.2" x2="162.9" y2="18.0"/><line class="gr" x1="208.5" y1="182.2" x2="208.5" y2="18.0"/><line class="gr" x1="254.1" y1="182.2" x2="254.1" y2="18.0"/><line class="gr" x1="299.8" y1="182.2" x2="299.8" y2="18.0"/><line class="gr" x1="26.0" y1="182.2" x2="318.0" y2="182.2"/><line class="gr" x1="26.0" y1="161.7" x2="318.0" y2="161.7"/><line class="gr" x1="26.0" y1="141.2" x2="318.0" y2="141.2"/><line class="gr" x1="26.0" y1="120.7" x2="318.0" y2="120.7"/><line class="gr" x1="26.0" y1="100.1" x2="318.0" y2="100.1"/><line class="gr" x1="26.0" y1="79.6" x2="318.0" y2="79.6"/><line class="gr" x1="26.0" y1="59.1" x2="318.0" y2="59.1"/><line class="gr" x1="26.0" y1="38.5" x2="318.0" y2="38.5"/><line class="gr" x1="26.0" y1="18.0" x2="318.0" y2="18.0"/><line class="ax" x1="22.0" y1="100.1" x2="328.0" y2="100.1" marker-end="url(#ah)"/><text class="lb it" x="330.0" y="114.1" text-anchor="end">x</text><line class="ax" x1="26.0" y1="186.2" x2="26.0" y2="8.0" marker-end="url(#ah)"/><text class="lb it" x="20.0" y="14.0" text-anchor="end">y</text><line class="ax" x1="71.6" y1="97.1" x2="71.6" y2="103.1"/><text class="tk" x="71.6" y="115.1" text-anchor="middle">m</text><line class="ax" x1="117.2" y1="97.1" x2="117.2" y2="103.1"/><text class="tk" x="117.2" y="115.1" text-anchor="middle">2m</text><line class="ax" x1="162.9" y1="97.1" x2="162.9" y2="103.1"/><text class="tk" x="162.9" y="115.1" text-anchor="middle">3m</text><line class="ax" x1="208.5" y1="97.1" x2="208.5" y2="103.1"/><text class="tk" x="208.5" y="115.1" text-anchor="middle">4m</text><line class="ax" x1="254.1" y1="97.1" x2="254.1" y2="103.1"/><text class="tk" x="254.1" y="115.1" text-anchor="middle">5m</text><line class="ax" x1="299.8" y1="97.1" x2="299.8" y2="103.1"/><text class="tk" x="299.8" y="115.1" text-anchor="middle">6m</text><line class="ax" x1="23.0" y1="182.2" x2="29.0" y2="182.2"/><text class="tk" x="20.0" y="186.2" text-anchor="end">-4</text><line class="ax" x1="23.0" y1="161.7" x2="29.0" y2="161.7"/><text class="tk" x="20.0" y="165.7" text-anchor="end">-3</text><line class="ax" x1="23.0" y1="141.2" x2="29.0" y2="141.2"/><text class="tk" x="20.0" y="145.2" text-anchor="end">-2</text><line class="ax" x1="23.0" y1="120.7" x2="29.0" y2="120.7"/><text class="tk" x="20.0" y="124.7" text-anchor="end">-1</text><line class="ax" x1="23.0" y1="79.6" x2="29.0" y2="79.6"/><text class="tk" x="20.0" y="83.6" text-anchor="end">1</text><line class="ax" x1="23.0" y1="59.1" x2="29.0" y2="59.1"/><text class="tk" x="20.0" y="63.1" text-anchor="end">2</text><line class="ax" x1="23.0" y1="38.5" x2="29.0" y2="38.5"/><text class="tk" x="20.0" y="42.5" text-anchor="end">3</text><line class="ax" x1="23.0" y1="18.0" x2="29.0" y2="18.0"/><text class="tk" x="20.0" y="22.0" text-anchor="end">4</text><path class="c1" d="M26.0,100.1 L26.9,99.5 L27.8,98.8 L28.7,98.2 L29.6,97.6 L30.6,96.9 L31.5,96.3 L32.4,95.6 L33.3,95.0 L34.2,94.4 L35.1,93.8 L36.0,93.2 L37.0,92.6 L37.9,92.0 L38.8,91.4 L39.7,90.8 L40.6,90.2 L41.5,89.7 L42.4,89.1 L43.3,88.6 L44.2,88.1 L45.2,87.5 L46.1,87.0 L47.0,86.5 L47.9,86.1 L48.8,85.6 L49.7,85.2 L50.6,84.7 L51.5,84.3 L52.5,83.9 L53.4,83.5 L54.3,83.1 L55.2,82.8 L56.1,82.5 L57.0,82.1 L57.9,81.8 L58.9,81.5 L59.8,81.3 L60.7,81.0 L61.6,80.8 L62.5,80.6 L63.4,80.4 L64.3,80.2 L65.2,80.1 L66.2,80.0 L67.1,79.8 L68.0,79.8 L68.9,79.7 L69.8,79.6 L70.7,79.6 L71.6,79.6 L72.5,79.6 L73.5,79.6 L74.4,79.7 L75.3,79.8 L76.2,79.8 L77.1,80.0 L78.0,80.1 L78.9,80.2 L79.8,80.4 L80.8,80.6 L81.7,80.8 L82.6,81.0 L83.5,81.3 L84.4,81.5 L85.3,81.8 L86.2,82.1 L87.1,82.5 L88.1,82.8 L89.0,83.1 L89.9,83.5 L90.8,83.9 L91.7,84.3 L92.6,84.7 L93.5,85.2 L94.4,85.6 L95.3,86.1 L96.3,86.5 L97.2,87.0 L98.1,87.5 L99.0,88.1 L99.9,88.6 L100.8,89.1 L101.7,89.7 L102.6,90.2 L103.6,90.8 L104.5,91.4 L105.4,92.0 L106.3,92.6 L107.2,93.2 L108.1,93.8 L109.0,94.4 L110.0,95.0 L110.9,95.6 L111.8,96.3 L112.7,96.9 L113.6,97.6 L114.5,98.2 L115.4,98.8 L116.3,99.5 L117.2,100.1 L118.2,100.8 L119.1,101.4 L120.0,102.1 L120.9,102.7 L121.8,103.3 L122.7,104.0 L123.6,104.6 L124.6,105.2 L125.5,105.9 L126.4,106.5 L127.3,107.1 L128.2,107.7 L129.1,108.3 L130.0,108.9 L130.9,109.4 L131.8,110.0 L132.8,110.6 L133.7,111.1 L134.6,111.7 L135.5,112.2 L136.4,112.7 L137.3,113.2 L138.2,113.7 L139.2,114.2 L140.1,114.6 L141.0,115.1 L141.9,115.5 L142.8,115.9 L143.7,116.3 L144.6,116.7 L145.5,117.1 L146.4,117.5 L147.4,117.8 L148.3,118.1 L149.2,118.4 L150.1,118.7 L151.0,119.0 L151.9,119.2 L152.8,119.4 L153.8,119.7 L154.7,119.8 L155.6,120.0 L156.5,120.2 L157.4,120.3 L158.3,120.4 L159.2,120.5 L160.1,120.6 L161.1,120.6 L162.0,120.6 L162.9,120.7 L163.8,120.6 L164.7,120.6 L165.6,120.6 L166.5,120.5 L167.4,120.4 L168.3,120.3 L169.3,120.2 L170.2,120.0 L171.1,119.8 L172.0,119.7 L172.9,119.4 L173.8,119.2 L174.7,119.0 L175.6,118.7 L176.6,118.4 L177.5,118.1 L178.4,117.8 L179.3,117.5 L180.2,117.1 L181.1,116.7 L182.0,116.3 L182.9,115.9 L183.9,115.5 L184.8,115.1 L185.7,114.6 L186.6,114.2 L187.5,113.7 L188.4,113.2 L189.3,112.7 L190.2,112.2 L191.2,111.7 L192.1,111.1 L193.0,110.6 L193.9,110.0 L194.8,109.4 L195.7,108.9 L196.6,108.3 L197.5,107.7 L198.5,107.1 L199.4,106.5 L200.3,105.9 L201.2,105.2 L202.1,104.6 L203.0,104.0 L203.9,103.3 L204.8,102.7 L205.8,102.1 L206.7,101.4 L207.6,100.8 L208.5,100.1"/><circle class="dt" cx="117.2" cy="100.1" r="3"/><circle class="dt" cx="208.5" cy="100.1" r="3"/></svg>