<svg xmlns="http://www.w3.org/2000/svg" class="dg" viewBox="0 0 320 543" width="320" role="img"><style>.gr{stroke:var(--grid,#c9d1d8);stroke-width:.7;stroke-dasharray:2 2}.ax{stroke:var(--fg,#1d2329);stroke-width:1.2}.ahd{fill:var(--fg,#1d2329)}.c1{fill:none;stroke:var(--accent,#1f6f78);stroke-width:2;stroke-linejoin:round}.c2{fill:none;stroke:var(--accent2,#b5562a);stroke-width:2;stroke-dasharray:6 4}.as{stroke:var(--muted,#5f6b76);stroke-width:1;stroke-dasharray:4 4}.sh{fill:var(--accent-soft,#e3f0f1);stroke:none}.dt{fill:var(--accent,#1f6f78)}.dto{fill:var(--paper,#fff);stroke:var(--accent2,#b5562a);stroke-width:1.5}.lb{fill:var(--fg,#1d2329);font:13px system-ui,sans-serif}.it{font-style:italic;font-family:Georgia,serif}.tk{fill:var(--muted,#5f6b76);font:11px ui-monospace,monospace}</style><defs><marker id="ah" viewBox="0 0 8 8" refX="7" refY="4" markerWidth="7" markerHeight="7" orient="auto"><path d="M0,0L8,4L0,8z" class="ahd"/></marker></defs><line class="ax" x1="22.0" y1="265.3" x2="308.0" y2="265.3" marker-end="url(#ah)"/><text class="lb it" x="310.0" y="279.3" text-anchor="end">x</text><line class="ax" x1="166.1" y1="516.5" x2="166.1" y2="8.0" marker-end="url(#ah)"/><text class="lb it" x="160.1" y="14.0" text-anchor="end">y</text><path class="c1" d="M42.5,265.3 L43.0,276.1 L43.5,280.5 L44.0,283.8 L44.5,286.6 L45.0,289.0 L45.5,291.2 L45.9,293.1 L46.4,294.9 L46.9,296.6 L47.4,298.2 L47.9,299.6 L48.4,301.0 L48.9,302.3 L49.4,303.5 L49.9,304.7 L50.4,305.8 L50.9,306.9 L51.4,307.9 L51.9,308.9 L52.4,309.9 L52.9,310.8 L53.4,311.6 L53.9,312.5 L54.4,313.3 L54.8,314.0 L55.3,314.8 L55.8,315.5 L56.3,316.2 L56.8,316.9 L57.3,317.5 L57.8,318.1 L58.3,318.7 L58.8,319.3 L59.3,319.9 L59.8,320.4 L60.3,320.9 L60.8,321.4 L61.3,321.9 L61.8,322.4 L62.3,322.8 L62.8,323.3 L63.3,323.7 L63.8,324.1 L64.2,324.5 L64.7,324.9 L65.2,325.2 L65.7,325.6 L66.2,325.9 L66.7,326.3 L67.2,326.6 L67.7,326.9 L68.2,327.2 L68.7,327.4 L69.2,327.7 L69.7,327.9 L70.2,328.2 L70.7,328.4 L71.2,328.6 L71.7,328.9 L72.2,329.1 L72.7,329.2 L73.1,329.4 L73.6,329.6 L74.1,329.8 L74.6,329.9 L75.1,330.1 L75.6,330.2 L76.1,330.3 L76.6,330.4 L77.1,330.5 L77.6,330.6 L78.1,330.7 L78.6,330.8 L79.1,330.9 L79.6,331.0 L80.1,331.0 L80.6,331.1 L81.1,331.1 L81.6,331.1 L82.0,331.2 L82.5,331.2 L83.0,331.2 L83.5,331.2 L84.0,331.2 L84.5,331.2 L85.0,331.2 L85.5,331.2 L86.0,331.1 L86.5,331.1 L87.0,331.1 L87.5,331.0 L88.0,331.0 L88.5,330.9 L89.0,330.8 L89.5,330.7 L90.0,330.7 L90.5,330.6 L91.0,330.5 L91.4,330.4 L91.9,330.3 L92.4,330.2 L92.9,330.1 L93.4,329.9 L93.9,329.8 L94.4,329.7 L94.9,329.5 L95.4,329.4 L95.9,329.2 L96.4,329.1 L96.9,328.9 L97.4,328.7 L97.9,328.6 L98.4,328.4 L98.9,328.2 L99.4,328.0 L99.9,327.8 L100.3,327.6 L100.8,327.4 L101.3,327.2 L101.8,327.0 L102.3,326.8 L102.8,326.5 L103.3,326.3 L103.8,326.1 L104.3,325.8 L104.8,325.6 L105.3,325.3 L105.8,325.1 L106.3,324.8 L106.8,324.6 L107.3,324.3 L107.8,324.0 L108.3,323.8 L108.8,323.5 L109.2,323.2 L109.7,322.9 L110.2,322.6 L110.7,322.3 L111.2,322.0 L111.7,321.7 L112.2,321.4 L112.7,321.0 L113.2,320.7 L113.7,320.4 L114.2,320.1 L114.7,319.7 L115.2,319.4 L115.7,319.1 L116.2,318.7 L116.7,318.4 L117.2,318.0 L117.7,317.6 L118.2,317.3 L118.6,316.9 L119.1,316.5 L119.6,316.2 L120.1,315.8 L120.6,315.4 L121.1,315.0 L121.6,314.6 L122.1,314.2 L122.6,313.8 L123.1,313.4 L123.6,313.0 L124.1,312.6 L124.6,312.2 L125.1,311.8 L125.6,311.3 L126.1,310.9 L126.6,310.5 L127.1,310.0 L127.5,309.6 L128.0,309.2 L128.5,308.7 L129.0,308.3 L129.5,307.8 L130.0,307.4 L130.5,306.9 L131.0,306.4 L131.5,306.0 L132.0,305.5 L132.5,305.0 L133.0,304.6 L133.5,304.1 L134.0,303.6 L134.5,303.1 L135.0,302.6 L135.5,302.1 L136.0,301.6 L136.4,301.1 L136.9,300.6 L137.4,300.1 L137.9,299.6 L138.4,299.1 L138.9,298.6 L139.4,298.0 L139.9,297.5 L140.4,297.0 L140.9,296.5 L141.4,295.9 L141.9,295.4 L142.4,294.8 L142.9,294.3 L143.4,293.7 L143.9,293.2 L144.4,292.6 L144.9,292.1 L145.4,291.5 L145.8,291.0 L146.3,290.4 L146.8,289.8 L147.3,289.3 L147.8,288.7 L148.3,288.1 L148.8,287.5 L149.3,286.9 L149.8,286.3 L150.3,285.7 L150.8,285.2 L151.3,284.6 L151.8,284.0 L152.3,283.4 L152.8,282.7 L153.3,282.1 L153.8,281.5 L154.3,280.9 L154.7,280.3 L155.2,279.7 L155.7,279.0 L156.2,278.4 L156.7,277.8 L157.2,277.2 L157.7,276.5 L158.2,275.9 L158.7,275.2 L159.2,274.6 L159.7,273.9 L160.2,273.3 L160.7,272.6 L161.2,272.0 L161.7,271.3 L162.2,270.7 L162.7,270.0 L163.2,269.3 L163.6,268.7 L164.1,268.0 L164.6,267.3 L165.1,266.6 L165.6,266.0 L166.1,265.3 L166.6,264.6 L167.1,263.9 L167.6,263.2 L168.1,262.5 L168.6,261.8 L169.1,261.1 L169.6,260.4 L170.1,259.7 L170.6,259.0 L171.1,258.3 L171.6,257.6 L172.1,256.9 L172.6,256.1 L173.0,255.4 L173.5,254.7 L174.0,254.0 L174.5,253.2 L175.0,252.5 L175.5,251.8 L176.0,251.0 L176.5,250.3 L177.0,249.5 L177.5,248.8 L178.0,248.1 L178.5,247.3 L179.0,246.6 L179.5,245.8 L180.0,245.0 L180.5,244.3 L181.0,243.5 L181.5,242.8 L181.9,242.0 L182.4,241.2 L182.9,240.4 L183.4,239.7 L183.9,238.9 L184.4,238.1 L184.9,237.3 L185.4,236.5 L185.9,235.8 L186.4,235.0 L186.9,234.2 L187.4,233.4 L187.9,232.6 L188.4,231.8 L188.9,231.0 L189.4,230.2 L189.9,229.4 L190.4,228.6 L190.8,227.7 L191.3,226.9 L191.8,226.1 L192.3,225.3 L192.8,224.5 L193.3,223.6 L193.8,222.8 L194.3,222.0 L194.8,221.2 L195.3,220.3 L195.8,219.5 L196.3,218.7 L196.8,217.8 L197.3,217.0 L197.8,216.1 L198.3,215.3 L198.8,214.4 L199.3,213.6 L199.8,212.7 L200.2,211.9 L200.7,211.0 L201.2,210.1 L201.7,209.3 L202.2,208.4 L202.7,207.5 L203.2,206.7 L203.7,205.8 L204.2,204.9 L204.7,204.0 L205.2,203.2 L205.7,202.3 L206.2,201.4 L206.7,200.5 L207.2,199.6 L207.7,198.7 L208.2,197.8 L208.7,197.0 L209.1,196.1 L209.6,195.2 L210.1,194.3 L210.6,193.3 L211.1,192.4 L211.6,191.5 L212.1,190.6 L212.6,189.7 L213.1,188.8 L213.6,187.9 L214.1,187.0 L214.6,186.0 L215.1,185.1 L215.6,184.2 L216.1,183.3 L216.6,182.3 L217.1,181.4 L217.6,180.5 L218.0,179.5 L218.5,178.6 L219.0,177.7 L219.5,176.7 L220.0,175.8 L220.5,174.8 L221.0,173.9 L221.5,172.9 L222.0,172.0 L222.5,171.0 L223.0,170.1 L223.5,169.1 L224.0,168.1 L224.5,167.2 L225.0,166.2 L225.5,165.2 L226.0,164.3 L226.5,163.3 L227.0,162.3 L227.4,161.3 L227.9,160.4 L228.4,159.4 L228.9,158.4 L229.4,157.4 L229.9,156.4 L230.4,155.4 L230.9,154.5 L231.4,153.5 L231.9,152.5 L232.4,151.5 L232.9,150.5 L233.4,149.5 L233.9,148.5 L234.4,147.5 L234.9,146.5 L235.4,145.4 L235.9,144.4 L236.3,143.4 L236.8,142.4 L237.3,141.4 L237.8,140.4 L238.3,139.4 L238.8,138.3 L239.3,137.3 L239.8,136.3 L240.3,135.3 L240.8,134.2 L241.3,133.2 L241.8,132.2 L242.3,131.1 L242.8,130.1 L243.3,129.0 L243.8,128.0 L244.3,127.0 L244.8,125.9 L245.2,124.9 L245.7,123.8 L246.2,122.8 L246.7,121.7 L247.2,120.7 L247.7,119.6 L248.2,118.5 L248.7,117.5 L249.2,116.4 L249.7,115.3 L250.2,114.3 L250.7,113.2 L251.2,112.1 L251.7,111.1 L252.2,110.0 L252.7,108.9 L253.2,107.8 L253.7,106.8 L254.2,105.7 L254.6,104.6 L255.1,103.5 L255.6,102.4 L256.1,101.3 L256.6,100.2 L257.1,99.1 L257.6,98.0 L258.1,96.9 L258.6,95.9 L259.1,94.8 L259.6,93.6 L260.1,92.5 L260.6,91.4 L261.1,90.3 L261.6,89.2 L262.1,88.1 L262.6,87.0 L263.1,85.9 L263.5,84.8 L264.0,83.6 L264.5,82.5 L265.0,81.4 L265.5,80.3 L266.0,79.1 L266.5,78.0 L267.0,76.9 L267.5,75.8 L268.0,74.6 L268.5,73.5 L269.0,72.4 L269.5,71.2 L270.0,70.1 L270.5,68.9 L271.0,67.8 L271.5,66.6 L272.0,65.5 L272.4,64.3 L272.9,63.2 L273.4,62.0 L273.9,60.9 L274.4,59.7 L274.9,58.6 L275.4,57.4 L275.9,56.2 L276.4,55.1 L276.9,53.9 L277.4,52.7 L277.9,51.6 L278.4,50.4 L278.9,49.2 L279.4,48.1 L279.9,46.9 L280.4,45.7 L280.9,44.5 L281.4,43.3 L281.8,42.2 L282.3,41.0 L282.8,39.8 L283.3,38.6 L283.8,37.4 L284.3,36.2 L284.8,35.0 L285.3,33.8 L285.8,32.6 L286.3,31.4 L286.8,30.2 L287.3,29.0 L287.8,27.8 L288.3,26.6 L288.8,25.4 L289.3,24.2 L289.8,23.0"/><path class="c1" d="M42.5,265.3 L43.0,254.5 L43.5,250.1 L44.0,246.7 L44.5,243.9 L45.0,241.5 L45.5,239.4 L45.9,237.4 L46.4,235.6 L46.9,233.9 L47.4,232.4 L47.9,230.9 L48.4,229.5 L48.9,228.2 L49.4,227.0 L49.9,225.8 L50.4,224.7 L50.9,223.6 L51.4,222.6 L51.9,221.6 L52.4,220.7 L52.9,219.8 L53.4,218.9 L53.9,218.1 L54.4,217.3 L54.8,216.5 L55.3,215.8 L55.8,215.1 L56.3,214.4 L56.8,213.7 L57.3,213.0 L57.8,212.4 L58.3,211.8 L58.8,211.2 L59.3,210.7 L59.8,210.1 L60.3,209.6 L60.8,209.1 L61.3,208.6 L61.8,208.2 L62.3,207.7 L62.8,207.3 L63.3,206.9 L63.8,206.4 L64.2,206.1 L64.7,205.7 L65.2,205.3 L65.7,205.0 L66.2,204.6 L66.7,204.3 L67.2,204.0 L67.7,203.7 L68.2,203.4 L68.7,203.1 L69.2,202.9 L69.7,202.6 L70.2,202.4 L70.7,202.1 L71.2,201.9 L71.7,201.7 L72.2,201.5 L72.7,201.3 L73.1,201.1 L73.6,200.9 L74.1,200.8 L74.6,200.6 L75.1,200.5 L75.6,200.4 L76.1,200.2 L76.6,200.1 L77.1,200.0 L77.6,199.9 L78.1,199.8 L78.6,199.7 L79.1,199.7 L79.6,199.6 L80.1,199.5 L80.6,199.5 L81.1,199.4 L81.6,199.4 L82.0,199.4 L82.5,199.4 L83.0,199.3 L83.5,199.3 L84.0,199.3 L84.5,199.3 L85.0,199.4 L85.5,199.4 L86.0,199.4 L86.5,199.4 L87.0,199.5 L87.5,199.5 L88.0,199.6 L88.5,199.7 L89.0,199.7 L89.5,199.8 L90.0,199.9 L90.5,200.0 L91.0,200.1 L91.4,200.2 L91.9,200.3 L92.4,200.4 L92.9,200.5 L93.4,200.6 L93.9,200.7 L94.4,200.9 L94.9,201.0 L95.4,201.2 L95.9,201.3 L96.4,201.5 L96.9,201.6 L97.4,201.8 L97.9,202.0 L98.4,202.2 L98.9,202.3 L99.4,202.5 L99.9,202.7 L100.3,202.9 L100.8,203.1 L101.3,203.3 L101.8,203.6 L102.3,203.8 L102.8,204.0 L103.3,204.2 L103.8,204.5 L104.3,204.7 L104.8,204.9 L105.3,205.2 L105.8,205.5 L106.3,205.7 L106.8,206.0 L107.3,206.2 L107.8,206.5 L108.3,206.8 L108.8,207.1 L109.2,207.4 L109.7,207.7 L110.2,208.0 L110.7,208.3 L111.2,208.6 L111.7,208.9 L112.2,209.2 L112.7,209.5 L113.2,209.8 L113.7,210.1 L114.2,210.5 L114.7,210.8 L115.2,211.1 L115.7,211.5 L116.2,211.8 L116.7,212.2 L117.2,212.5 L117.7,212.9 L118.2,213.3 L118.6,213.6 L119.1,214.0 L119.6,214.4 L120.1,214.8 L120.6,215.2 L121.1,215.5 L121.6,215.9 L122.1,216.3 L122.6,216.7 L123.1,217.1 L123.6,217.5 L124.1,218.0 L124.6,218.4 L125.1,218.8 L125.6,219.2 L126.1,219.6 L126.6,220.1 L127.1,220.5 L127.5,220.9 L128.0,221.4 L128.5,221.8 L129.0,222.3 L129.5,222.7 L130.0,223.2 L130.5,223.6 L131.0,224.1 L131.5,224.6 L132.0,225.0 L132.5,225.5 L133.0,226.0 L133.5,226.5 L134.0,227.0 L134.5,227.4 L135.0,227.9 L135.5,228.4 L136.0,228.9 L136.4,229.4 L136.9,229.9 L137.4,230.4 L137.9,231.0 L138.4,231.5 L138.9,232.0 L139.4,232.5 L139.9,233.0 L140.4,233.6 L140.9,234.1 L141.4,234.6 L141.9,235.2 L142.4,235.7 L142.9,236.3 L143.4,236.8 L143.9,237.3 L144.4,237.9 L144.9,238.5 L145.4,239.0 L145.8,239.6 L146.3,240.2 L146.8,240.7 L147.3,241.3 L147.8,241.9 L148.3,242.4 L148.8,243.0 L149.3,243.6 L149.8,244.2 L150.3,244.8 L150.8,245.4 L151.3,246.0 L151.8,246.6 L152.3,247.2 L152.8,247.8 L153.3,248.4 L153.8,249.0 L154.3,249.6 L154.7,250.3 L155.2,250.9 L155.7,251.5 L156.2,252.1 L156.7,252.8 L157.2,253.4 L157.7,254.0 L158.2,254.7 L158.7,255.3 L159.2,256.0 L159.7,256.6 L160.2,257.2 L160.7,257.9 L161.2,258.6 L161.7,259.2 L162.2,259.9 L162.7,260.5 L163.2,261.2 L163.6,261.9 L164.1,262.6 L164.6,263.2 L165.1,263.9 L165.6,264.6 L166.1,265.3 L166.6,266.0 L167.1,266.6 L167.6,267.3 L168.1,268.0 L168.6,268.7 L169.1,269.4 L169.6,270.1 L170.1,270.8 L170.6,271.6 L171.1,272.3 L171.6,273.0 L172.1,273.7 L172.6,274.4 L173.0,275.1 L173.5,275.9 L174.0,276.6 L174.5,277.3 L175.0,278.0 L175.5,278.8 L176.0,279.5 L176.5,280.3 L177.0,281.0 L177.5,281.7 L178.0,282.5 L178.5,283.2 L179.0,284.0 L179.5,284.7 L180.0,285.5 L180.5,286.3 L181.0,287.0 L181.5,287.8 L181.9,288.6 L182.4,289.3 L182.9,290.1 L183.4,290.9 L183.9,291.7 L184.4,292.4 L184.9,293.2 L185.4,294.0 L185.9,294.8 L186.4,295.6 L186.9,296.4 L187.4,297.2 L187.9,298.0 L188.4,298.8 L188.9,299.6 L189.4,300.4 L189.9,301.2 L190.4,302.0 L190.8,302.8 L191.3,303.6 L191.8,304.4 L192.3,305.3 L192.8,306.1 L193.3,306.9 L193.8,307.7 L194.3,308.6 L194.8,309.4 L195.3,310.2 L195.8,311.1 L196.3,311.9 L196.8,312.7 L197.3,313.6 L197.8,314.4 L198.3,315.3 L198.8,316.1 L199.3,317.0 L199.8,317.8 L200.2,318.7 L200.7,319.5 L201.2,320.4 L201.7,321.3 L202.2,322.1 L202.7,323.0 L203.2,323.9 L203.7,324.7 L204.2,325.6 L204.7,326.5 L205.2,327.4 L205.7,328.3 L206.2,329.1 L206.7,330.0 L207.2,330.9 L207.7,331.8 L208.2,332.7 L208.7,333.6 L209.1,334.5 L209.6,335.4 L210.1,336.3 L210.6,337.2 L211.1,338.1 L211.6,339.0 L212.1,339.9 L212.6,340.8 L213.1,341.7 L213.6,342.7 L214.1,343.6 L214.6,344.5 L215.1,345.4 L215.6,346.4 L216.1,347.3 L216.6,348.2 L217.1,349.1 L217.6,350.1 L218.0,351.0 L218.5,352.0 L219.0,352.9 L219.5,353.8 L220.0,354.8 L220.5,355.7 L221.0,356.7 L221.5,357.6 L222.0,358.6 L222.5,359.5 L223.0,360.5 L223.5,361.5 L224.0,362.4 L224.5,363.4 L225.0,364.3 L225.5,365.3 L226.0,366.3 L226.5,367.3 L227.0,368.2 L227.4,369.2 L227.9,370.2 L228.4,371.2 L228.9,372.1 L229.4,373.1 L229.9,374.1 L230.4,375.1 L230.9,376.1 L231.4,377.1 L231.9,378.1 L232.4,379.1 L232.9,380.1 L233.4,381.1 L233.9,382.1 L234.4,383.1 L234.9,384.1 L235.4,385.1 L235.9,386.1 L236.3,387.1 L236.8,388.1 L237.3,389.2 L237.8,390.2 L238.3,391.2 L238.8,392.2 L239.3,393.2 L239.8,394.3 L240.3,395.3 L240.8,396.3 L241.3,397.4 L241.8,398.4 L242.3,399.4 L242.8,400.5 L243.3,401.5 L243.8,402.5 L244.3,403.6 L244.8,404.6 L245.2,405.7 L245.7,406.7 L246.2,407.8 L246.7,408.8 L247.2,409.9 L247.7,411.0 L248.2,412.0 L248.7,413.1 L249.2,414.1 L249.7,415.2 L250.2,416.3 L250.7,417.3 L251.2,418.4 L251.7,419.5 L252.2,420.6 L252.7,421.6 L253.2,422.7 L253.7,423.8 L254.2,424.9 L254.6,426.0 L255.1,427.0 L255.6,428.1 L256.1,429.2 L256.6,430.3 L257.1,431.4 L257.6,432.5 L258.1,433.6 L258.6,434.7 L259.1,435.8 L259.6,436.9 L260.1,438.0 L260.6,439.1 L261.1,440.2 L261.6,441.3 L262.1,442.4 L262.6,443.6 L263.1,444.7 L263.5,445.8 L264.0,446.9 L264.5,448.0 L265.0,449.1 L265.5,450.3 L266.0,451.4 L266.5,452.5 L267.0,453.7 L267.5,454.8 L268.0,455.9 L268.5,457.1 L269.0,458.2 L269.5,459.3 L270.0,460.5 L270.5,461.6 L271.0,462.8 L271.5,463.9 L272.0,465.1 L272.4,466.2 L272.9,467.4 L273.4,468.5 L273.9,469.7 L274.4,470.8 L274.9,472.0 L275.4,473.1 L275.9,474.3 L276.4,475.5 L276.9,476.6 L277.4,477.8 L277.9,479.0 L278.4,480.1 L278.9,481.3 L279.4,482.5 L279.9,483.7 L280.4,484.8 L280.9,486.0 L281.4,487.2 L281.8,488.4 L282.3,489.6 L282.8,490.8 L283.3,491.9 L283.8,493.1 L284.3,494.3 L284.8,495.5 L285.3,496.7 L285.8,497.9 L286.3,499.1 L286.8,500.3 L287.3,501.5 L287.8,502.7 L288.3,503.9 L288.8,505.1 L289.3,506.3 L289.8,507.5"/><circle class="dt" cx="166.1" cy="265.3" r="3"/><text class="lb" x="172.1" y="279.3" text-anchor="start">O</text></svg>