<svg xmlns="http://www.w3.org/2000/svg" class="dg" viewBox="0 0 300 343" width="300" role="img"><style>.gr{stroke:var(--grid,#c9d1d8);stroke-width:.7;stroke-dasharray:2 2}.ax{stroke:var(--fg,#1d2329);stroke-width:1.2}.ahd{fill:var(--fg,#1d2329)}.c1{fill:none;stroke:var(--accent,#1f6f78);stroke-width:2;stroke-linejoin:round}.c2{fill:none;stroke:var(--accent2,#b5562a);stroke-width:2;stroke-dasharray:6 4}.as{stroke:var(--muted,#5f6b76);stroke-width:1;stroke-dasharray:4 4}.sh{fill:var(--accent-soft,#e3f0f1);stroke:none}.dt{fill:var(--accent,#1f6f78)}.dto{fill:var(--paper,#fff);stroke:var(--accent2,#b5562a);stroke-width:1.5}.lb{fill:var(--fg,#1d2329);font:13px system-ui,sans-serif}.it{font-style:italic;font-family:Georgia,serif}.tk{fill:var(--muted,#5f6b76);font:11px ui-monospace,monospace}</style><defs><marker id="ah" viewBox="0 0 8 8" refX="7" refY="4" markerWidth="7" markerHeight="7" orient="auto"><path d="M0,0L8,4L0,8z" class="ahd"/></marker></defs><line class="ax" x1="22.0" y1="139.3" x2="288.0" y2="139.3" marker-end="url(#ah)"/><text class="lb it" x="290.0" y="153.3" text-anchor="end">x</text><line class="ax" x1="120.5" y1="316.5" x2="120.5" y2="8.0" marker-end="url(#ah)"/><text class="lb it" x="114.5" y="14.0" text-anchor="end">y</text><path class="c1" d="M38.6,70.7 L39.2,72.9 L39.7,75.1 L40.3,77.4 L40.9,79.6 L41.4,81.8 L42.0,83.9 L42.6,86.1 L43.1,88.3 L43.7,90.4 L44.3,92.6 L44.8,94.7 L45.4,96.8 L46.0,98.9 L46.5,101.0 L47.1,103.1 L47.7,105.2 L48.2,107.2 L48.8,109.3 L49.4,111.3 L49.9,113.3 L50.5,115.3 L51.1,117.3 L51.6,119.3 L52.2,121.3 L52.8,123.3 L53.3,125.3 L53.9,127.2 L54.5,129.1 L55.0,131.1 L55.6,133.0 L56.2,134.9 L56.7,136.8 L57.3,138.7 L57.9,140.5 L58.4,142.4 L59.0,144.2 L59.6,146.1 L60.1,147.9 L60.7,149.7 L61.3,151.5 L61.8,153.3 L62.4,155.1 L63.0,156.8 L63.5,158.6 L64.1,160.3 L64.7,162.1 L65.2,163.8 L65.8,165.5 L66.4,167.2 L66.9,168.9 L67.5,170.6 L68.1,172.2 L68.7,173.9 L69.2,175.5 L69.8,177.2 L70.4,178.8 L70.9,180.4 L71.5,182.0 L72.1,183.6 L72.6,185.2 L73.2,186.7 L73.8,188.3 L74.3,189.8 L74.9,191.4 L75.5,192.9 L76.0,194.4 L76.6,195.9 L77.2,197.4 L77.7,198.9 L78.3,200.3 L78.9,201.8 L79.4,203.2 L80.0,204.7 L80.6,206.1 L81.1,207.5 L81.7,208.9 L82.3,210.3 L82.8,211.7 L83.4,213.0 L84.0,214.4 L84.5,215.7 L85.1,217.0 L85.7,218.4 L86.2,219.7 L86.8,221.0 L87.4,222.2 L87.9,223.5 L88.5,224.8 L89.1,226.0 L89.6,227.3 L90.2,228.5 L90.8,229.7 L91.3,230.9 L91.9,232.1 L92.5,233.3 L93.0,234.5 L93.6,235.6 L94.2,236.8 L94.7,237.9 L95.3,239.1 L95.9,240.2 L96.4,241.3 L97.0,242.4 L97.6,243.5 L98.1,244.5 L98.7,245.6 L99.3,246.7 L99.8,247.7 L100.4,248.7 L101.0,249.7 L101.5,250.7 L102.1,251.7 L102.7,252.7 L103.2,253.7 L103.8,254.6 L104.4,255.6 L104.9,256.5 L105.5,257.5 L106.1,258.4 L106.6,259.3 L107.2,260.2 L107.8,261.0 L108.3,261.9 L108.9,262.8 L109.5,263.6 L110.0,264.5 L110.6,265.3 L111.2,266.1 L111.7,266.9 L112.3,267.7 L112.9,268.5 L113.4,269.2 L114.0,270.0 L114.6,270.7 L115.1,271.5 L115.7,272.2 L116.3,272.9 L116.8,273.6 L117.4,274.3 L118.0,275.0 L118.5,275.7 L119.1,276.3 L119.7,277.0 L120.2,277.6 L120.8,278.2 L121.4,278.8 L121.9,279.4 L122.5,280.0 L123.1,280.6 L123.7,281.2 L124.2,281.7 L124.8,282.3 L125.4,282.8 L125.9,283.3 L126.5,283.8 L127.1,284.3 L127.6,284.8 L128.2,285.3 L128.8,285.8 L129.3,286.2 L129.9,286.7 L130.5,287.1 L131.0,287.5 L131.6,287.9 L132.2,288.3 L132.7,288.7 L133.3,289.1 L133.9,289.5 L134.4,289.8 L135.0,290.1 L135.6,290.5 L136.1,290.8 L136.7,291.1 L137.3,291.4 L137.8,291.7 L138.4,292.0 L139.0,292.2 L139.5,292.5 L140.1,292.7 L140.7,293.0 L141.2,293.2 L141.8,293.4 L142.4,293.6 L142.9,293.8 L143.5,293.9 L144.1,294.1 L144.6,294.3 L145.2,294.4 L145.8,294.5 L146.3,294.6 L146.9,294.7 L147.5,294.8 L148.0,294.9 L148.6,295.0 L149.2,295.1 L149.7,295.1 L150.3,295.1 L150.9,295.2 L151.4,295.2 L152.0,295.2 L152.6,295.2 L153.1,295.2 L153.7,295.1 L154.3,295.1 L154.8,295.1 L155.4,295.0 L156.0,294.9 L156.5,294.8 L157.1,294.7 L157.7,294.6 L158.2,294.5 L158.8,294.4 L159.4,294.3 L159.9,294.1 L160.5,293.9 L161.1,293.8 L161.6,293.6 L162.2,293.4 L162.8,293.2 L163.3,293.0 L163.9,292.7 L164.5,292.5 L165.0,292.2 L165.6,292.0 L166.2,291.7 L166.7,291.4 L167.3,291.1 L167.9,290.8 L168.4,290.5 L169.0,290.1 L169.6,289.8 L170.1,289.5 L170.7,289.1 L171.3,288.7 L171.8,288.3 L172.4,287.9 L173.0,287.5 L173.5,287.1 L174.1,286.7 L174.7,286.2 L175.2,285.8 L175.8,285.3 L176.4,284.8 L176.9,284.3 L177.5,283.8 L178.1,283.3 L178.6,282.8 L179.2,282.3 L179.8,281.7 L180.3,281.2 L180.9,280.6 L181.5,280.0 L182.1,279.4 L182.6,278.8 L183.2,278.2 L183.8,277.6 L184.3,277.0 L184.9,276.3 L185.5,275.7 L186.0,275.0 L186.6,274.3 L187.2,273.6 L187.7,272.9 L188.3,272.2 L188.9,271.5 L189.4,270.7 L190.0,270.0 L190.6,269.2 L191.1,268.5 L191.7,267.7 L192.3,266.9 L192.8,266.1 L193.4,265.3 L194.0,264.5 L194.5,263.6 L195.1,262.8 L195.7,261.9 L196.2,261.0 L196.8,260.2 L197.4,259.3 L197.9,258.4 L198.5,257.5 L199.1,256.5 L199.6,255.6 L200.2,254.6 L200.8,253.7 L201.3,252.7 L201.9,251.7 L202.5,250.7 L203.0,249.7 L203.6,248.7 L204.2,247.7 L204.7,246.7 L205.3,245.6 L205.9,244.5 L206.4,243.5 L207.0,242.4 L207.6,241.3 L208.1,240.2 L208.7,239.1 L209.3,237.9 L209.8,236.8 L210.4,235.6 L211.0,234.5 L211.5,233.3 L212.1,232.1 L212.7,230.9 L213.2,229.7 L213.8,228.5 L214.4,227.3 L214.9,226.0 L215.5,224.8 L216.1,223.5 L216.6,222.2 L217.2,221.0 L217.8,219.7 L218.3,218.4 L218.9,217.0 L219.5,215.7 L220.0,214.4 L220.6,213.0 L221.2,211.7 L221.7,210.3 L222.3,208.9 L222.9,207.5 L223.4,206.1 L224.0,204.7 L224.6,203.2 L225.1,201.8 L225.7,200.3 L226.3,198.9 L226.8,197.4 L227.4,195.9 L228.0,194.4 L228.5,192.9 L229.1,191.4 L229.7,189.8 L230.2,188.3 L230.8,186.7 L231.4,185.2 L231.9,183.6 L232.5,182.0 L233.1,180.4 L233.6,178.8 L234.2,177.2 L234.8,175.5 L235.3,173.9 L235.9,172.2 L236.5,170.6 L237.0,168.9 L237.6,167.2 L238.2,165.5 L238.8,163.8 L239.3,162.1 L239.9,160.3 L240.5,158.6 L241.0,156.8 L241.6,155.1 L242.2,153.3 L242.7,151.5 L243.3,149.7 L243.9,147.9 L244.4,146.1 L245.0,144.2 L245.6,142.4 L246.1,140.5 L246.7,138.7 L247.3,136.8 L247.8,134.9 L248.4,133.0 L249.0,131.1 L249.5,129.1 L250.1,127.2 L250.7,125.3 L251.2,123.3 L251.8,121.3 L252.4,119.3 L252.9,117.3 L253.5,115.3 L254.1,113.3 L254.6,111.3 L255.2,109.3 L255.8,107.2 L256.3,105.2 L256.9,103.1 L257.5,101.0 L258.0,98.9 L258.6,96.8 L259.2,94.7 L259.7,92.6 L260.3,90.4 L260.9,88.3 L261.4,86.1 L262.0,83.9 L262.6,81.8 L263.1,79.6 L263.7,77.4 L264.3,75.1 L264.8,72.9 L265.4,70.7"/><circle class="dt" cx="152.0" cy="295.2" r="3"/><text class="lb" x="160.0" y="299.2" text-anchor="start">(1, −9)</text><circle class="dt" cx="120.5" cy="277.9" r="3"/><text class="lb" x="112.5" y="281.9" text-anchor="end">(0, c)</text></svg>