<svg xmlns="http://www.w3.org/2000/svg" class="dg" viewBox="0 0 300 376" width="300" role="img"><style>.gr{stroke:var(--grid,#c9d1d8);stroke-width:.7;stroke-dasharray:2 2}.ax{stroke:var(--fg,#1d2329);stroke-width:1.2}.ahd{fill:var(--fg,#1d2329)}.c1{fill:none;stroke:var(--accent,#1f6f78);stroke-width:2;stroke-linejoin:round}.c2{fill:none;stroke:var(--accent2,#b5562a);stroke-width:2;stroke-dasharray:6 4}.as{stroke:var(--muted,#5f6b76);stroke-width:1;stroke-dasharray:4 4}.sh{fill:var(--accent-soft,#e3f0f1);stroke:none}.dt{fill:var(--accent,#1f6f78)}.dto{fill:var(--paper,#fff);stroke:var(--accent2,#b5562a);stroke-width:1.5}.lb{fill:var(--fg,#1d2329);font:13px system-ui,sans-serif}.it{font-style:italic;font-family:Georgia,serif}.tk{fill:var(--muted,#5f6b76);font:11px ui-monospace,monospace}</style><defs><marker id="ah" viewBox="0 0 8 8" refX="7" refY="4" markerWidth="7" markerHeight="7" orient="auto"><path d="M0,0L8,4L0,8z" class="ahd"/></marker></defs><line class="ax" x1="22.0" y1="118.8" x2="288.0" y2="118.8" marker-end="url(#ah)"/><text class="lb it" x="290.0" y="132.8" text-anchor="end">x</text><line class="ax" x1="152.0" y1="349.6" x2="152.0" y2="8.0" marker-end="url(#ah)"/><text class="lb it" x="146.0" y="14.0" text-anchor="end">y</text><line class="as" x1="26.0" y1="68.4" x2="278.0" y2="68.4"/><text class="lb" x="276.0" y="63.4" text-anchor="end">y = 2</text><path class="c1" d="M26.0,69.3 L26.5,69.3 L27.1,69.4 L27.6,69.4 L28.2,69.4 L28.7,69.4 L29.2,69.4 L29.8,69.4 L30.3,69.4 L30.9,69.5 L31.4,69.5 L31.9,69.5 L32.5,69.5 L33.0,69.5 L33.6,69.5 L34.1,69.6 L34.7,69.6 L35.2,69.6 L35.7,69.6 L36.3,69.6 L36.8,69.6 L37.4,69.7 L37.9,69.7 L38.4,69.7 L39.0,69.7 L39.5,69.7 L40.1,69.7 L40.6,69.8 L41.1,69.8 L41.7,69.8 L42.2,69.8 L42.8,69.8 L43.3,69.9 L43.8,69.9 L44.4,69.9 L44.9,69.9 L45.5,70.0 L46.0,70.0 L46.5,70.0 L47.1,70.0 L47.6,70.0 L48.2,70.1 L48.7,70.1 L49.3,70.1 L49.8,70.1 L50.3,70.2 L50.9,70.2 L51.4,70.2 L52.0,70.2 L52.5,70.3 L53.0,70.3 L53.6,70.3 L54.1,70.3 L54.7,70.4 L55.2,70.4 L55.7,70.4 L56.3,70.5 L56.8,70.5 L57.4,70.5 L57.9,70.6 L58.4,70.6 L59.0,70.6 L59.5,70.6 L60.1,70.7 L60.6,70.7 L61.1,70.7 L61.7,70.8 L62.2,70.8 L62.8,70.8 L63.3,70.9 L63.9,70.9 L64.4,70.9 L64.9,71.0 L65.5,71.0 L66.0,71.1 L66.6,71.1 L67.1,71.1 L67.6,71.2 L68.2,71.2 L68.7,71.3 L69.3,71.3 L69.8,71.3 L70.3,71.4 L70.9,71.4 L71.4,71.5 L72.0,71.5 L72.5,71.6 L73.0,71.6 L73.6,71.6 L74.1,71.7 L74.7,71.7 L75.2,71.8 L75.7,71.8 L76.3,71.9 L76.8,71.9 L77.4,72.0 L77.9,72.0 L78.5,72.1 L79.0,72.1 L79.5,72.2 L80.1,72.2 L80.6,72.3 L81.2,72.4 L81.7,72.4 L82.2,72.5 L82.8,72.5 L83.3,72.6 L83.9,72.6 L84.4,72.7 L84.9,72.8 L85.5,72.8 L86.0,72.9 L86.6,73.0 L87.1,73.0 L87.6,73.1 L88.2,73.1 L88.7,73.2 L89.3,73.3 L89.8,73.4 L90.3,73.4 L90.9,73.5 L91.4,73.6 L92.0,73.6 L92.5,73.7 L93.1,73.8 L93.6,73.9 L94.1,73.9 L94.7,74.0 L95.2,74.1 L95.8,74.2 L96.3,74.3 L96.8,74.4 L97.4,74.4 L97.9,74.5 L98.5,74.6 L99.0,74.7 L99.5,74.8 L100.1,74.9 L100.6,75.0 L101.2,75.1 L101.7,75.2 L102.2,75.3 L102.8,75.4 L103.3,75.5 L103.9,75.6 L104.4,75.7 L104.9,75.8 L105.5,75.9 L106.0,76.0 L106.6,76.1 L107.1,76.2 L107.7,76.3 L108.2,76.4 L108.7,76.5 L109.3,76.6 L109.8,76.8 L110.4,76.9 L110.9,77.0 L111.4,77.1 L112.0,77.2 L112.5,77.4 L113.1,77.5 L113.6,77.6 L114.1,77.8 L114.7,77.9 L115.2,78.0 L115.8,78.2 L116.3,78.3 L116.8,78.4 L117.4,78.6 L117.9,78.7 L118.5,78.9 L119.0,79.0 L119.5,79.2 L120.1,79.3 L120.6,79.5 L121.2,79.7 L121.7,79.8 L122.3,80.0 L122.8,80.1 L123.3,80.3 L123.9,80.5 L124.4,80.6 L125.0,80.8 L125.5,81.0 L126.0,81.2 L126.6,81.4 L127.1,81.5 L127.7,81.7 L128.2,81.9 L128.7,82.1 L129.3,82.3 L129.8,82.5 L130.4,82.7 L130.9,82.9 L131.4,83.1 L132.0,83.3 L132.5,83.5 L133.1,83.8 L133.6,84.0 L134.2,84.2 L134.7,84.4 L135.2,84.7 L135.8,84.9 L136.3,85.1 L136.9,85.4 L137.4,85.6 L137.9,85.8 L138.5,86.1 L139.0,86.3 L139.6,86.6 L140.1,86.9 L140.6,87.1 L141.2,87.4 L141.7,87.7 L142.3,87.9 L142.8,88.2 L143.3,88.5 L143.9,88.8 L144.4,89.1 L145.0,89.4 L145.5,89.7 L146.0,90.0 L146.6,90.3 L147.1,90.6 L147.7,90.9 L148.2,91.2 L148.8,91.5 L149.3,91.9 L149.8,92.2 L150.4,92.5 L150.9,92.9 L151.5,93.2 L152.0,93.6 L152.5,94.0 L153.1,94.3 L153.6,94.7 L154.2,95.1 L154.7,95.4 L155.2,95.8 L155.8,96.2 L156.3,96.6 L156.9,97.0 L157.4,97.4 L157.9,97.8 L158.5,98.3 L159.0,98.7 L159.6,99.1 L160.1,99.6 L160.6,100.0 L161.2,100.4 L161.7,100.9 L162.3,101.4 L162.8,101.8 L163.4,102.3 L163.9,102.8 L164.4,103.3 L165.0,103.8 L165.5,104.3 L166.1,104.8 L166.6,105.3 L167.1,105.8 L167.7,106.4 L168.2,106.9 L168.8,107.5 L169.3,108.0 L169.8,108.6 L170.4,109.2 L170.9,109.7 L171.5,110.3 L172.0,110.9 L172.5,111.5 L173.1,112.1 L173.6,112.8 L174.2,113.4 L174.7,114.0 L175.2,114.7 L175.8,115.3 L176.3,116.0 L176.9,116.7 L177.4,117.4 L178.0,118.1 L178.5,118.8 L179.0,119.5 L179.6,120.2 L180.1,121.0 L180.7,121.7 L181.2,122.5 L181.7,123.3 L182.3,124.0 L182.8,124.8 L183.4,125.6 L183.9,126.4 L184.4,127.3 L185.0,128.1 L185.5,129.0 L186.1,129.8 L186.6,130.7 L187.1,131.6 L187.7,132.5 L188.2,133.4 L188.8,134.3 L189.3,135.3 L189.8,136.2 L190.4,137.2 L190.9,138.2 L191.5,139.2 L192.0,140.2 L192.6,141.2 L193.1,142.2 L193.6,143.3 L194.2,144.3 L194.7,145.4 L195.3,146.5 L195.8,147.6 L196.3,148.8 L196.9,149.9 L197.4,151.1 L198.0,152.2 L198.5,153.4 L199.0,154.7 L199.6,155.9 L200.1,157.1 L200.7,158.4 L201.2,159.7 L201.7,161.0 L202.3,162.3 L202.8,163.6 L203.4,165.0 L203.9,166.4 L204.4,167.8 L205.0,169.2 L205.5,170.6 L206.1,172.1 L206.6,173.5 L207.2,175.0 L207.7,176.6 L208.2,178.1 L208.8,179.7 L209.3,181.2 L209.9,182.9 L210.4,184.5 L210.9,186.1 L211.5,187.8 L212.0,189.5 L212.6,191.2 L213.1,193.0 L213.6,194.8 L214.2,196.6 L214.7,198.4 L215.3,200.2 L215.8,202.1 L216.3,204.0 L216.9,206.0 L217.4,207.9 L218.0,209.9 L218.5,211.9 L219.0,214.0 L219.6,216.0 L220.1,218.1 L220.7,220.3 L221.2,222.4 L221.8,224.6 L222.3,226.9 L222.8,229.1 L223.4,231.4 L223.9,233.7 L224.5,236.1 L225.0,238.5 L225.5,240.9 L226.1,243.4 L226.6,245.8 L227.2,248.4 L227.7,250.9 L228.2,253.5 L228.8,256.2 L229.3,258.8 L229.9,261.6 L230.4,264.3 L230.9,267.1 L231.5,269.9 L232.0,272.8 L232.6,275.7 L233.1,278.7 L233.6,281.7 L234.2,284.7 L234.7,287.8 L235.3,290.9 L235.8,294.1 L236.4,297.3 L236.9,300.6 L237.4,303.9 L238.0,307.2 L238.5,310.6 L239.1,314.1 L239.6,317.6 L240.1,321.1 L240.7,324.7 L241.2,328.4 L241.8,332.1 L242.3,335.8"/><circle class="dt" cx="194.0" cy="144.0" r="3"/><text class="lb" x="202.0" y="148.0" text-anchor="start">(1, −1)</text><circle class="dt" cx="236.0" cy="295.2" r="3"/><text class="lb" x="244.0" y="299.2" text-anchor="start">(2, −7)</text></svg>